//  ***** gm - SFX *****
//  Soundfont converted using sfZed
//  SoundFont version 2.1
//  E-mu 10K1
//  Using Virtual Sampler


<group>
ampeg_release=0.250

<region>
sample=APPLS64A.wav
lokey=58
hikey=58
loop_mode=loop_continuous
loop_start=32
loop_end=7262
tune=44
pitch_keycenter=68

<region>
sample=BIRD_60.wav
lokey=78
hikey=78
loop_mode=loop_continuous
loop_start=2536
loop_end=4021
tune=13
pitch_keycenter=95
volume=-18.100

<region>
sample=BSLAP60.wav
lokey=50
hikey=50
tune=-50
pitch_keycenter=66
volume=-18.100

<region>
sample=BUBLE68A.wav
lokey=84
hikey=84
loop_mode=loop_continuous
loop_start=33
loop_end=7200
tune=45
pitch_keycenter=96
volume=-17.600

<region>
sample=CLICK60.wav
lokey=44
hikey=44
pitch_keycenter=44
volume=-1

<region>
sample=CPASS64.wav
lokey=65
hikey=65
loop_mode=loop_continuous
loop_start=13
loop_end=6512
tune=-1
pitch_keycenter=77
volume=-9.300

<region>
sample=CRASH60B.wav
lokey=69
hikey=69
loop_mode=loop_continuous
loop_start=2615
loop_end=8290
tune=-12
pitch_keycenter=127

<region>
sample=CRASH65.wav
lokey=66
hikey=66
loop_mode=loop_continuous
loop_start=7
loop_end=5982
tune=45
pitch_keycenter=86

<region>
sample=CRASH65.wav
lokey=75
hikey=75
loop_mode=loop_continuous
loop_start=7
loop_end=5982
tune=45
pitch_keycenter=123
volume=-7.200

<region>
sample=CREAK64.wav
lokey=59
hikey=59
pitch_keycenter=84
volume=-18.100

<region>
sample=CSTOP64.wav
lokey=64
hikey=64
loop_mode=loop_continuous
loop_start=15
loop_end=2964
pitch_keycenter=67
volume=-9.300

<region>
sample=DOGBW60.wav
lokey=76
hikey=76
tune=20
pitch_keycenter=87

<region>
sample=DWCUT60.wav
lokey=48
hikey=48
pitch_keycenter=53
volume=-46.500

<region>
sample=DWCUT60.wav
lokey=49
hikey=49
pitch_keycenter=54
volume=-15.500

<region>
sample=ENGIN64.wav
lokey=63
hikey=63
loop_mode=loop_continuous
loop_start=4726
loop_end=6946
tune=33
pitch_keycenter=79
volume=-9.100

<region>
sample=GFRET69.wav
lokey=47
hikey=47
pitch_keycenter=56
volume=-20.700

<region>
sample=HEART64.wav
lokey=55
hikey=55
tune=45
pitch_keycenter=90
volume=-9.100

<region>
sample=HELI_60.wav
lokey=70
hikey=70
loop_mode=loop_continuous
loop_start=7
loop_end=3884
tune=22
pitch_keycenter=72
volume=-10.900

<region>
sample=HI_Q_60.wav
lokey=39
hikey=39
tune=45
pitch_keycenter=39
volume=-28.400

<region>
sample=HORSE64.wav
lokey=77
hikey=77
loop_mode=loop_continuous
loop_start=6
loop_end=3802
tune=-13
pitch_keycenter=92
volume=-16.800

<region>
sample=KEY__60.wav
lokey=51
hikey=51
pitch_keycenter=51
volume=-7

<region>
sample=LASER64A.wav
lokey=74
hikey=74
pitch_keycenter=85
volume=-8

<region>
sample=LAUGH59A.wav
lokey=52
hikey=52
pitch_keycenter=56
volume=-2.600

<region>
sample=M_GUN64.wav
lokey=73
hikey=73
loop_mode=loop_continuous
loop_start=7
loop_end=840
pitch_keycenter=84
volume=-10.100

<region>
sample=METRO60.wav
lokey=46
hikey=46
loop_mode=loop_continuous
loop_start=750
loop_end=878
tune=2
pitch_keycenter=46
volume=-2.600

<region>
sample=PISTL60.wav
lokey=72
hikey=72
pitch_keycenter=90
volume=-8.500

<region>
sample=PUNCH64.wav
lokey=54
hikey=54
pitch_keycenter=71
volume=-7.800

<region>
sample=SCRCH64.wav
lokey=61
hikey=61
pitch_keycenter=68
volume=-15.300

<region>
sample=SCREM64A.wav
lokey=53
hikey=53
tune=12
pitch_keycenter=64
volume=-2.600

<region>
sample=SDOOR64.wav
lokey=60
hikey=60
pitch_keycenter=75
volume=-6.500

<region>
sample=SEA__60.wav
lokey=79
hikey=79
loop_mode=loop_continuous
loop_start=1
loop_end=13667
pitch_keycenter=77
volume=-36.200

<region>
sample=SEA__60.wav
lokey=82
hikey=82
loop_mode=loop_continuous
loop_start=1
loop_end=13667
tune=44
pitch_keycenter=92
volume=-14.200

<region>
sample=SIDE_60.wav
lokey=45
hikey=45
tune=20
pitch_keycenter=43
volume=-6.500

<region>
sample=SIREN64.wav
lokey=67
hikey=67
loop_mode=loop_continuous
loop_start=32
loop_end=1584
tune=16
pitch_keycenter=90
volume=-9.600

<region>
sample=SLAP_60.wav
lokey=40
hikey=40
pitch_keycenter=43
volume=-12.900

<region>
sample=SPULL60.wav
lokey=42
hikey=42
pitch_keycenter=50
volume=-15

<region>
sample=SPUSH60.wav
lokey=41
hikey=41
pitch_keycenter=48
volume=-17.100

<region>
sample=STEPS64.wav
lokey=56
hikey=56
pitch_keycenter=74
volume=-5.200

<region>
sample=STEPS64.wav
lokey=57
hikey=57
tune=33
pitch_keycenter=70
volume=-3.900

<region>
sample=STICK64.wav
lokey=43
hikey=43
pitch_keycenter=48
volume=-1.800

<region>
sample=STREM67B.wav
lokey=83
hikey=83
loop_mode=loop_continuous
loop_start=611
loop_end=9544
tune=48
pitch_keycenter=102
volume=-13.700

<region>
sample=STSHP64.wav
lokey=71
hikey=71
loop_mode=loop_continuous
loop_start=11
loop_end=1515
tune=33
pitch_keycenter=78
volume=-16.300

<region>
sample=THUND64.wav
lokey=80
hikey=80
loop_mode=loop_continuous
loop_start=4443
loop_end=7977
tune=9
pitch_keycenter=123

<region>
sample=TRAIN64.wav
lokey=68
hikey=68
loop_mode=loop_continuous
loop_start=15
loop_end=7182
tune=6
pitch_keycenter=88
volume=-2.600

<region>
sample=WCHIM60A.wav
lokey=62
hikey=62
loop_mode=loop_continuous
loop_start=3310
loop_end=13199
pitch_keycenter=62
volume=-12.200

<region>
sample=WIND_60.wav
lokey=81
hikey=81
loop_mode=loop_continuous
loop_start=21
loop_end=9382
pitch_keycenter=76
volume=-25.300
